<?xml version="1.0" encoding="UTF-8" standalone="no"?>
<!-- Created with Inkscape (http://www.inkscape.org/) -->

<svg
   xmlns:dc="http://purl.org/dc/elements/1.1/"
   xmlns:cc="http://creativecommons.org/ns#"
   xmlns:rdf="http://www.w3.org/1999/02/22-rdf-syntax-ns#"
   xmlns:svg="http://www.w3.org/2000/svg"
   xmlns="http://www.w3.org/2000/svg"
   xmlns:sodipodi="http://sodipodi.sourceforge.net/DTD/sodipodi-0.dtd"
   xmlns:inkscape="http://www.inkscape.org/namespaces/inkscape"
   width="250.09"
   height="250.36"
   id="svg5138"
   version="1.1"
   inkscape:version="0.48.4 r9939"
   sodipodi:docname="ball.svg">
  <defs
     id="defs5140" />
  <sodipodi:namedview
     id="base"
     pagecolor="#ffffff"
     bordercolor="#666666"
     borderopacity="1.0"
     inkscape:pageopacity="0.0"
     inkscape:pageshadow="2"
     inkscape:zoom="1.4"
     inkscape:cx="116.72319"
     inkscape:cy="38.142186"
     inkscape:document-units="px"
     inkscape:current-layer="layer1"
     showgrid="false"
     inkscape:window-width="1301"
     inkscape:window-height="744"
     inkscape:window-x="65"
     inkscape:window-y="24"
     inkscape:window-maximized="1" />
  <metadata
     id="metadata5143">
    <rdf:RDF>
      <cc:Work
         rdf:about="">
        <dc:format>image/svg+xml</dc:format>
        <dc:type
           rdf:resource="http://purl.org/dc/dcmitype/StillImage" />
        <dc:title></dc:title>
      </cc:Work>
    </rdf:RDF>
  </metadata>
  <g
     inkscape:label="Layer 1"
     inkscape:groupmode="layer"
     id="layer1"
     transform="translate(0,-802.00218)">
    <path
       sodipodi:type="arc"
       style="fill:none;stroke:#ffffff;stroke-width:1.50000000000000000;stroke-miterlimit:4;stroke-opacity:1;stroke-dasharray:none"
       id="path5616"
       sodipodi:cx="265.71429"
       sodipodi:cy="418.07648"
       sodipodi:rx="95.714287"
       sodipodi:ry="95.714287"
       d="m 361.42858,418.07648 a 95.714287,95.714287 0 1 1 -191.42857,0 95.714287,95.714287 0 1 1 191.42857,0 z"
       transform="translate(-140,506)" />
    <path
       transform="matrix(0.99450122,0,0,0.24912582,-138.83919,818.92278)"
       sodipodi:type="arc"
       style="fill:none;stroke:#ffffff;stroke-width:3.01355574000000015;stroke-miterlimit:4;stroke-opacity:1;stroke-dasharray:none"
       id="path5616-4"
       sodipodi:cx="265.71429"
       sodipodi:cy="418.07648"
       sodipodi:rx="95.714287"
       sodipodi:ry="95.714287"
       d="m 361.42858,418.07648 a 95.714287,95.714287 0 1 1 -191.42857,0 95.714287,95.714287 0 1 1 191.42857,0 z" />
    <path
       transform="matrix(0.93892779,0,0,0.27304444,-123.69404,781.49442)"
       sodipodi:type="arc"
       style="fill:none;stroke:#ffffff;stroke-width:2.96250092000000009;stroke-miterlimit:4;stroke-opacity:1;stroke-dasharray:none"
       id="path5616-4-9-8"
       sodipodi:cx="265.71429"
       sodipodi:cy="418.07648"
       sodipodi:rx="95.714287"
       sodipodi:ry="95.714287"
       d="m 361.42858,418.07648 a 95.714287,95.714287 0 1 1 -191.42857,0 95.714287,95.714287 0 1 1 191.42857,0 z" />
    <path
       transform="matrix(0.80043373,0,0,0.23980599,-87.22174,769.40508)"
       sodipodi:type="arc"
       style="fill:none;stroke:#ffffff;stroke-width:3.42372251000000016;stroke-miterlimit:4;stroke-opacity:1;stroke-dasharray:none"
       id="path5616-4-9-8-7"
       sodipodi:cx="265.71429"
       sodipodi:cy="418.07648"
       sodipodi:rx="95.714287"
       sodipodi:ry="95.714287"
       d="m 361.42858,418.07648 a 95.714287,95.714287 0 1 1 -191.42857,0 95.714287,95.714287 0 1 1 191.42857,0 z" />
    <path
       transform="matrix(0.56921224,0,0,0.14396551,-25.891445,788.0307)"
       sodipodi:type="arc"
       style="fill:none;stroke:#ffffff;stroke-width:5.23992311000000033;stroke-miterlimit:4;stroke-opacity:1;stroke-dasharray:none"
       id="path5616-4-9-8-7-2"
       sodipodi:cx="265.71429"
       sodipodi:cy="418.07648"
       sodipodi:rx="95.714287"
       sodipodi:ry="95.714287"
       d="m 361.42858,418.07648 a 95.714287,95.714287 0 1 1 -191.42857,0 95.714287,95.714287 0 1 1 191.42857,0 z" />
    <path
       transform="matrix(0.94205726,0,0,-0.27303753,-124.66108,1066.8926)"
       sodipodi:type="arc"
       style="fill:none;stroke:#ffffff;stroke-width:2.95761361000000012;stroke-miterlimit:4;stroke-opacity:1;stroke-dasharray:none"
       id="path5616-4-9-8-6"
       sodipodi:cx="265.71429"
       sodipodi:cy="418.07648"
       sodipodi:rx="95.714287"
       sodipodi:ry="95.714287"
       d="m 361.42858,418.07648 a 95.714287,95.714287 0 1 1 -191.42857,0 95.714287,95.714287 0 1 1 191.42857,0 z" />
    <path
       transform="matrix(0.80043373,0,0,-0.23980599,-87.557532,1078.7851)"
       sodipodi:type="arc"
       style="fill:none;stroke:#ffffff;stroke-width:3.42372247999999990;stroke-miterlimit:4;stroke-opacity:1;stroke-dasharray:none"
       id="path5616-4-9-8-7-4"
       sodipodi:cx="265.71429"
       sodipodi:cy="418.07648"
       sodipodi:rx="95.714287"
       sodipodi:ry="95.714287"
       d="m 361.42858,418.07648 a 95.714287,95.714287 0 1 1 -191.42857,0 95.714287,95.714287 0 1 1 191.42857,0 z" />
    <path
       transform="matrix(0.55719478,0,0,-0.13348869,-22.275968,1056.9894)"
       sodipodi:type="arc"
       style="fill:none;stroke:#ffffff;stroke-width:0;stroke-miterlimit:4;stroke-opacity:1;stroke-dasharray:none"
       id="path5616-4-9-8-7-2-5"
       sodipodi:cx="265.71429"
       sodipodi:cy="418.07648"
       sodipodi:rx="95.714287"
       sodipodi:ry="95.714287"
       d="m 361.42858,418.07648 a 95.714287,95.714287 0 1 1 -191.42857,0 95.714287,95.714287 0 1 1 191.42857,0 z" />
    <path
       style="fill:none;stroke:#ffffff;stroke-width:1.50000000000000000;stroke-linecap:butt;stroke-linejoin:miter;stroke-opacity:1;stroke-miterlimit:4;stroke-dasharray:none"
       d="m 177.40933,843.46472 c 0,0 59.55084,57.34385 0,161.42418"
       id="path6208-8"
       inkscape:connector-curvature="0" />
    <path
       style="fill:none;stroke:#ffffff;stroke-width:1.50000000000000000;stroke-linecap:butt;stroke-linejoin:miter;stroke-opacity:1;stroke-miterlimit:4;stroke-dasharray:none"
       d="m 153.35575,832.46769 c 0,0 66.73133,70.14571 0,182.89861"
       id="path6380-0"
       inkscape:connector-curvature="0"
       sodipodi:nodetypes="cc" />
    <path
       style="fill:none;stroke:#ffffff;stroke-width:1.50000000000000000;stroke-linecap:butt;stroke-linejoin:miter;stroke-opacity:1;stroke-miterlimit:4;stroke-dasharray:none"
       d="m 128.36145,828.35433 c 0,0 70.37349,73.31356 0,191.15857"
       id="path6380-0-8"
       inkscape:connector-curvature="0"
       sodipodi:nodetypes="cc" />
    <path
       style="fill:none;stroke:#ffffff;stroke-width:1.50000000000000000;stroke-linecap:butt;stroke-linejoin:miter;stroke-opacity:1;stroke-miterlimit:4;stroke-dasharray:none"
       d="m 104.17604,830.75863 c 0,0 66.70785,71.41457 0,186.20707"
       id="path6380-0-2"
       inkscape:connector-curvature="0"
       sodipodi:nodetypes="cc" />
    <path
       style="fill:none;stroke:#ffffff;stroke-width:1.50000000000000000;stroke-linecap:butt;stroke-linejoin:miter;stroke-opacity:1;stroke-miterlimit:4;stroke-dasharray:none"
       d="m 77.71285,842.36688 c 0,0 66.86359,63.22277 0,164.84772"
       id="path6380-0-2-0"
       inkscape:connector-curvature="0"
       sodipodi:nodetypes="cc" />
    <path
       style="fill:none;stroke:#ffffff;stroke-width:1.50000000000000000;stroke-linecap:butt;stroke-linejoin:miter;stroke-opacity:1;stroke-miterlimit:4;stroke-dasharray:none"
       d="m 57.300995,857.96927 c 0,0 49.752575,51.1159 0,133.28028"
       id="path6380-0-2-0-1"
       inkscape:connector-curvature="0"
       sodipodi:nodetypes="cc" />
    <path
       style="fill:none;stroke:#ffffff;stroke-width:1.50000000000000000;stroke-linecap:butt;stroke-linejoin:miter;stroke-opacity:1;stroke-miterlimit:4;stroke-dasharray:none"
       d="m 41.341535,878.42495 c 0,0 22.249059,35.15693 0,91.66876"
       id="path6380-0-2-0-1-9"
       inkscape:connector-curvature="0"
       sodipodi:nodetypes="cc" />
  </g>
</svg>
